<svg xmlns="http://www.w3.org/2000/svg" viewBox="0 0 100 100" width="100" height="100">
  <defs>
    <linearGradient id="grad" x1="0%" y1="0%" x2="100%" y2="100%">
      <stop offset="0%" style="stop-color:#3ecf8e;stop-opacity:1" />
      <stop offset="100%" style="stop-color:#4285f4;stop-opacity:1" />
    </linearGradient>
  </defs>
  <rect width="100" height="100" rx="20" fill="url(#grad)"/>
  <path d="M50 20 C35 35 25 50 30 65 C35 80 50 85 50 85 C50 85 65 80 70 65 C75 50 65 35 50 20Z" fill="#03070f" opacity="0.9"/>
  <path d="M50 30 C40 42 33 52 37 63 C41 74 50 78 50 78 C50 78 59 74 63 63 C67 52 60 42 50 30Z" fill="#3ecf8e" opacity="0.8"/>
  <line x1="50" y1="45" x2="50" y2="72" stroke="#03070f" stroke-width="2" opacity="0.5"/>
  <line x1="50" y1="52" x2="42" y2="48" stroke="#03070f" stroke-width="1.5" opacity="0.4"/>
  <line x1="50" y1="58" x2="58" y2="54" stroke="#03070f" stroke-width="1.5" opacity="0.4"/>
</svg>
